<mxfile host="Electron" agent="Mozilla/5.0 (Windows NT 10.0; Win64; x64) AppleWebKit/537.36 (KHTML, like Gecko) draw.io/24.7.8 Chrome/128.0.6613.36 Electron/32.0.1 Safari/537.36" version="24.7.8">
  <diagram name="Page-1" id="o-z2eC26gKVoCjLt7r7J">
    <mxGraphModel dx="989" dy="610" grid="1" gridSize="10" guides="1" tooltips="1" connect="1" arrows="1" fold="1" page="1" pageScale="1" pageWidth="827" pageHeight="1169" math="0" shadow="0">
      <root>
        <mxCell id="0" />
        <mxCell id="1" parent="0" />
        <mxCell id="CGwy8Cs3MwyGED_WYgiG-1" value="API" style="shape=umlLifeline;perimeter=lifelinePerimeter;whiteSpace=wrap;html=1;container=1;dropTarget=0;collapsible=0;recursiveResize=0;outlineConnect=0;portConstraint=eastwest;newEdgeStyle={&quot;edgeStyle&quot;:&quot;elbowEdgeStyle&quot;,&quot;elbow&quot;:&quot;vertical&quot;,&quot;curved&quot;:0,&quot;rounded&quot;:0};" parent="1" vertex="1">
          <mxGeometry x="364" y="240" width="100" height="460" as="geometry" />
        </mxCell>
        <mxCell id="CGwy8Cs3MwyGED_WYgiG-17" value="" style="html=1;points=[[0,0,0,0,5],[0,1,0,0,-5],[1,0,0,0,5],[1,1,0,0,-5]];perimeter=orthogonalPerimeter;outlineConnect=0;targetShapes=umlLifeline;portConstraint=eastwest;newEdgeStyle={&quot;curved&quot;:0,&quot;rounded&quot;:0};" parent="CGwy8Cs3MwyGED_WYgiG-1" vertex="1">
          <mxGeometry x="45" y="90" width="10" height="350" as="geometry" />
        </mxCell>
        <mxCell id="CGwy8Cs3MwyGED_WYgiG-3" value="Database" style="shape=umlLifeline;perimeter=lifelinePerimeter;whiteSpace=wrap;html=1;container=1;dropTarget=0;collapsible=0;recursiveResize=0;outlineConnect=0;portConstraint=eastwest;newEdgeStyle={&quot;edgeStyle&quot;:&quot;elbowEdgeStyle&quot;,&quot;elbow&quot;:&quot;vertical&quot;,&quot;curved&quot;:0,&quot;rounded&quot;:0};" parent="1" vertex="1">
          <mxGeometry x="640" y="240" width="100" height="430" as="geometry" />
        </mxCell>
        <mxCell id="CGwy8Cs3MwyGED_WYgiG-5" value="" style="shape=umlLifeline;perimeter=lifelinePerimeter;whiteSpace=wrap;html=1;container=1;dropTarget=0;collapsible=0;recursiveResize=0;outlineConnect=0;portConstraint=eastwest;newEdgeStyle={&quot;curved&quot;:0,&quot;rounded&quot;:0};participant=umlActor;" parent="1" vertex="1">
          <mxGeometry x="170" y="240" width="20" height="480" as="geometry" />
        </mxCell>
        <mxCell id="CGwy8Cs3MwyGED_WYgiG-6" value="User" style="text;html=1;align=center;verticalAlign=middle;whiteSpace=wrap;rounded=0;" parent="1" vertex="1">
          <mxGeometry x="100" y="246" width="60" height="30" as="geometry" />
        </mxCell>
        <mxCell id="CGwy8Cs3MwyGED_WYgiG-7" value="1: Login (username,password)" style="html=1;verticalAlign=bottom;endArrow=block;curved=0;rounded=0;fontStyle=1" parent="1" edge="1">
          <mxGeometry width="80" relative="1" as="geometry">
            <mxPoint x="179.81034482758605" y="331" as="sourcePoint" />
            <mxPoint x="409" y="331" as="targetPoint" />
          </mxGeometry>
        </mxCell>
        <mxCell id="CGwy8Cs3MwyGED_WYgiG-8" value="2: Check credentials" style="html=1;verticalAlign=bottom;endArrow=block;curved=0;rounded=0;fontStyle=1" parent="1" target="CGwy8Cs3MwyGED_WYgiG-23" edge="1">
          <mxGeometry width="80" relative="1" as="geometry">
            <mxPoint x="419" y="360" as="sourcePoint" />
            <mxPoint x="684.9999999999999" y="360" as="targetPoint" />
          </mxGeometry>
        </mxCell>
        <mxCell id="CGwy8Cs3MwyGED_WYgiG-15" value="" style="html=1;verticalAlign=bottom;labelBackgroundColor=none;endArrow=block;endFill=1;dashed=1;rounded=0;" parent="1" edge="1">
          <mxGeometry width="160" relative="1" as="geometry">
            <mxPoint x="686" y="476" as="sourcePoint" />
            <mxPoint x="419" y="476" as="targetPoint" />
          </mxGeometry>
        </mxCell>
        <mxCell id="CGwy8Cs3MwyGED_WYgiG-12" value="Interaction heading" style="shape=umlFrame;whiteSpace=wrap;html=1;pointerEvents=0;recursiveResize=0;container=1;collapsible=0;width=170;fontStyle=1" parent="1" vertex="1">
          <mxGeometry x="160" y="380" width="560" height="330" as="geometry" />
        </mxCell>
        <mxCell id="CGwy8Cs3MwyGED_WYgiG-23" value="" style="html=1;points=[[0,0,0,0,5],[0,1,0,0,-5],[1,0,0,0,5],[1,1,0,0,-5]];perimeter=orthogonalPerimeter;outlineConnect=0;targetShapes=umlLifeline;portConstraint=eastwest;newEdgeStyle={&quot;curved&quot;:0,&quot;rounded&quot;:0};" parent="CGwy8Cs3MwyGED_WYgiG-12" vertex="1">
          <mxGeometry x="526" y="-20" width="10" height="300" as="geometry" />
        </mxCell>
        <mxCell id="CGwy8Cs3MwyGED_WYgiG-13" value="User crendentials is valid" style="text;html=1;fontStyle=1" parent="CGwy8Cs3MwyGED_WYgiG-12" vertex="1">
          <mxGeometry width="160" height="20" relative="1" as="geometry">
            <mxPoint x="20" y="40" as="offset" />
          </mxGeometry>
        </mxCell>
        <mxCell id="CGwy8Cs3MwyGED_WYgiG-14" value="[else]" style="line;strokeWidth=1;dashed=1;labelPosition=center;verticalLabelPosition=bottom;align=left;verticalAlign=top;spacingLeft=20;spacingTop=15;html=1;whiteSpace=wrap;" parent="CGwy8Cs3MwyGED_WYgiG-12" vertex="1">
          <mxGeometry y="180" width="560" height="10" as="geometry" />
        </mxCell>
        <mxCell id="CGwy8Cs3MwyGED_WYgiG-16" value="2.1: Credentials OK" style="text;html=1;align=center;verticalAlign=middle;whiteSpace=wrap;rounded=0;fontSize=11;fontStyle=1" parent="CGwy8Cs3MwyGED_WYgiG-12" vertex="1">
          <mxGeometry x="322" y="69" width="140" height="30" as="geometry" />
        </mxCell>
        <mxCell id="CGwy8Cs3MwyGED_WYgiG-21" value="2.1: Credentials Not OK" style="text;html=1;align=center;verticalAlign=middle;whiteSpace=wrap;rounded=0;fontStyle=1" parent="CGwy8Cs3MwyGED_WYgiG-12" vertex="1">
          <mxGeometry x="317" y="230" width="140" height="30" as="geometry" />
        </mxCell>
        <mxCell id="CGwy8Cs3MwyGED_WYgiG-22" value="" style="html=1;verticalAlign=bottom;labelBackgroundColor=none;endArrow=block;endFill=1;dashed=1;rounded=0;" parent="CGwy8Cs3MwyGED_WYgiG-12" target="CGwy8Cs3MwyGED_WYgiG-17" edge="1">
          <mxGeometry width="160" relative="1" as="geometry">
            <mxPoint x="525" y="261" as="sourcePoint" />
            <mxPoint x="290" y="260" as="targetPoint" />
          </mxGeometry>
        </mxCell>
        <mxCell id="2" value="&lt;span style=&quot;font-size: 12px; font-weight: 700; background-color: rgb(42, 37, 47);&quot;&gt;2.2: Display bad request message&lt;/span&gt;" style="html=1;verticalAlign=bottom;endArrow=block;" parent="1" edge="1">
          <mxGeometry width="80" relative="1" as="geometry">
            <mxPoint x="409" y="680" as="sourcePoint" />
            <mxPoint x="180.16666666666663" y="680" as="targetPoint" />
          </mxGeometry>
        </mxCell>
        <mxCell id="eHkDJyVZJVbwb1l2WkBo-2" value="&lt;span style=&quot;font-weight: 700; text-wrap: wrap; background-color: rgb(27, 29, 30);&quot;&gt;2.2: Display a JWT&lt;/span&gt;" style="html=1;verticalAlign=bottom;endArrow=block;curved=0;rounded=0;" edge="1" parent="1" source="CGwy8Cs3MwyGED_WYgiG-17" target="CGwy8Cs3MwyGED_WYgiG-5">
          <mxGeometry width="80" relative="1" as="geometry">
            <mxPoint x="330" y="500" as="sourcePoint" />
            <mxPoint x="250" y="500" as="targetPoint" />
          </mxGeometry>
        </mxCell>
      </root>
    </mxGraphModel>
  </diagram>
</mxfile>
